# xmcd
#
# Track frame offsets:
#	150
#	15894
#	32434
#	49160
#	67803
#	85579
#	93208
#	110419
#	126529
#	144310
#	155411
#	170001
#
# Disc length: 2466 seconds
#
# Revision: 0
# Processed by: cddbd v1.5.2PL0 Copyright (c) Steve Scherf et al.
# Submitted via: dBpowerAMP V4.0
#
DISCID=8b09a00c
DTITLE=Greg Zlap - Air
DYEAR=2011
DGENRE=Blues
TTITLE0=01 Free Soul
TTITLE1=02 How Deep Is Your Soul
TTITLE2=03 This Train Is Going To Nowhere
TTITLE3=04 Half My Life
TTITLE4=05 The Wind Is Rising
TTITLE5=06 O²
TTITLE6=07 I Know You'll Be Mine
TTITLE7=08 Oxygen
TTITLE8=09 Niech Poplyna Lzy
TTITLE9=10 Sit Down And Breathe
TTITLE10=11 Please Stay
TTITLE11=12 Where The Winds Blow
EXTD=
EXTT0=
EXTT1=
EXTT2=
EXTT3=
EXTT4=
EXTT5=
EXTT6=
EXTT7=
EXTT8=
EXTT9=
EXTT10=
EXTT11=
PLAYORDER=
